<svg xmlns="http://www.w3.org/2000/svg" xmlns:xlink="http://www.w3.org/1999/xlink" width="500" zoomAndPan="magnify" viewBox="0 0 375 374.999991" height="500" preserveAspectRatio="xMidYMid meet" version="1.0"><defs><filter x="0%" y="0%" width="100%" height="100%" id="22b1407013"><feColorMatrix values="0 0 0 0 1 0 0 0 0 1 0 0 0 0 1 0 0 0 1 0" color-interpolation-filters="sRGB"/></filter><g/><clipPath id="6b5cd05e5e"><path d="M 119.703125 79.949219 L 242.3125 79.949219 L 242.3125 187.597656 L 119.703125 187.597656 Z M 119.703125 79.949219 " clip-rule="nonzero"/></clipPath><mask id="200e342dcb"><g filter="url(#22b1407013)"><rect x="-37.5" width="450" fill="#000000" y="-37.499999" height="449.999989" fill-opacity="0.8196"/></g></mask><clipPath id="3ac43cc637"><path d="M 0.21875 0.90625 L 97.796875 0.90625 L 97.796875 86.578125 L 0.21875 86.578125 Z M 0.21875 0.90625 " clip-rule="nonzero"/></clipPath><clipPath id="e45937e06e"><rect x="0" width="98" y="0" height="87"/></clipPath><clipPath id="7c5bcdfb0a"><path d="M 108 172 L 253 172 L 253 225.8125 L 108 225.8125 Z M 108 172 " clip-rule="nonzero"/></clipPath><clipPath id="8d028a7bc5"><path d="M 95 41.3125 L 267 41.3125 L 267 216 L 95 216 Z M 95 41.3125 " clip-rule="nonzero"/></clipPath><clipPath id="f2e648417c"><path d="M 251.167969 120.660156 L 180.742188 41.3125 L 110.386719 120.667969 C 93.78125 139.394531 90.617188 168.316406 102.773438 190.894531 C 106.457031 197.738281 110.558594 203.585938 113.90625 207.90625 C 114.195312 208.277344 114.480469 208.640625 114.757812 208.992188 C 117 211.824219 118.832031 213.878906 119.835938 214.972656 C 120.246094 215.421875 120.519531 215.707031 120.636719 215.824219 C 120.496094 215.65625 120.34375 215.476562 120.199219 215.308594 C 114.679688 208.585938 109.871094 197.320312 109.5625 188.765625 C 109.378906 183.652344 109.878906 178.582031 111.058594 173.742188 C 111.085938 173.609375 111.121094 173.484375 111.152344 173.351562 C 112.5625 167.726562 114.890625 162.417969 118.125 157.6875 L 180.785156 65.984375 L 243.441406 157.6875 C 246.742188 162.515625 249.097656 167.957031 250.496094 173.703125 C 251.679688 178.558594 252.183594 183.636719 252 188.765625 C 251.691406 197.535156 246.640625 209.164062 240.941406 215.8125 C 240.929688 215.828125 240.910156 215.847656 240.894531 215.867188 C 240.917969 215.847656 240.953125 215.8125 241 215.765625 C 241.585938 215.152344 244.1875 212.378906 247.582031 208.019531 C 247.582031 208.011719 247.582031 208.011719 247.585938 208.007812 C 251.070312 203.527344 255.378906 197.371094 259.195312 190.15625 C 271.035156 167.730469 267.585938 139.15625 251.167969 120.660156 Z M 251.167969 120.660156 " clip-rule="nonzero"/></clipPath><linearGradient x1="181.634" gradientTransform="matrix(0.470165, 0, 0, 0.470303, 95.416407, 41.314209)" y1="0.00000569542" x2="181.634" gradientUnits="userSpaceOnUse" y2="371.149974" id="9d923f544a"><stop stop-opacity="1" stop-color="rgb(100%, 100%, 100%)" offset="0"/><stop stop-opacity="1" stop-color="rgb(100%, 100%, 100%)" offset="0.015625"/><stop stop-opacity="1" stop-color="rgb(100%, 99.902344%, 99.902344%)" offset="0.0234375"/><stop stop-opacity="1" stop-color="rgb(100%, 99.5224%, 99.5224%)" offset="0.0273438"/><stop stop-opacity="1" stop-color="rgb(100%, 99.240112%, 99.240112%)" offset="0.03125"/><stop stop-opacity="1" stop-color="rgb(100%, 98.957825%, 98.957825%)" offset="0.0351562"/><stop stop-opacity="1" stop-color="rgb(100%, 98.675537%, 98.675537%)" offset="0.0390625"/><stop stop-opacity="1" stop-color="rgb(100%, 98.39325%, 98.39325%)" offset="0.0429687"/><stop stop-opacity="1" stop-color="rgb(100%, 98.110962%, 98.110962%)" offset="0.046875"/><stop stop-opacity="1" stop-color="rgb(100%, 97.828674%, 97.828674%)" offset="0.0507812"/><stop stop-opacity="1" stop-color="rgb(100%, 97.546387%, 97.546387%)" offset="0.0546875"/><stop stop-opacity="1" stop-color="rgb(100%, 97.262573%, 97.262573%)" offset="0.0585937"/><stop stop-opacity="1" stop-color="rgb(100%, 96.980286%, 96.980286%)" offset="0.0625"/><stop stop-opacity="1" stop-color="rgb(100%, 96.697998%, 96.697998%)" offset="0.0664062"/><stop stop-opacity="1" stop-color="rgb(100%, 96.41571%, 96.41571%)" offset="0.0703125"/><stop stop-opacity="1" stop-color="rgb(100%, 96.133423%, 96.133423%)" offset="0.0742188"/><stop stop-opacity="1" stop-color="rgb(100%, 95.851135%, 95.851135%)" offset="0.078125"/><stop stop-opacity="1" stop-color="rgb(100%, 95.568848%, 95.568848%)" offset="0.0820312"/><stop stop-opacity="1" stop-color="rgb(100%, 95.28656%, 95.28656%)" offset="0.0859375"/><stop stop-opacity="1" stop-color="rgb(100%, 95.004272%, 95.004272%)" offset="0.0898438"/><stop stop-opacity="1" stop-color="rgb(100%, 94.721985%, 94.721985%)" offset="0.09375"/><stop stop-opacity="1" stop-color="rgb(100%, 94.438171%, 94.438171%)" offset="0.0976562"/><stop stop-opacity="1" stop-color="rgb(100%, 94.155884%, 94.155884%)" offset="0.101562"/><stop stop-opacity="1" stop-color="rgb(100%, 93.873596%, 93.873596%)" offset="0.105469"/><stop stop-opacity="1" stop-color="rgb(100%, 93.591309%, 93.591309%)" offset="0.109375"/><stop stop-opacity="1" stop-color="rgb(100%, 93.309021%, 93.309021%)" offset="0.113281"/><stop stop-opacity="1" stop-color="rgb(100%, 93.026733%, 93.026733%)" offset="0.117188"/><stop stop-opacity="1" stop-color="rgb(100%, 92.744446%, 92.744446%)" offset="0.121094"/><stop stop-opacity="1" stop-color="rgb(100%, 92.462158%, 92.462158%)" offset="0.125"/><stop stop-opacity="1" stop-color="rgb(100%, 92.179871%, 92.179871%)" offset="0.128906"/><stop stop-opacity="1" stop-color="rgb(100%, 91.897583%, 91.897583%)" offset="0.132812"/><stop stop-opacity="1" stop-color="rgb(100%, 91.61377%, 91.61377%)" offset="0.136719"/><stop stop-opacity="1" stop-color="rgb(100%, 91.331482%, 91.331482%)" offset="0.140625"/><stop stop-opacity="1" stop-color="rgb(100%, 91.049194%, 91.049194%)" offset="0.144531"/><stop stop-opacity="1" stop-color="rgb(100%, 90.766907%, 90.766907%)" offset="0.148438"/><stop stop-opacity="1" stop-color="rgb(100%, 90.484619%, 90.484619%)" offset="0.152344"/><stop stop-opacity="1" stop-color="rgb(100%, 90.202332%, 90.202332%)" offset="0.15625"/><stop stop-opacity="1" stop-color="rgb(100%, 89.920044%, 89.920044%)" offset="0.160156"/><stop stop-opacity="1" stop-color="rgb(100%, 89.637756%, 89.637756%)" offset="0.164062"/><stop stop-opacity="1" stop-color="rgb(100%, 89.355469%, 89.355469%)" offset="0.167969"/><stop stop-opacity="1" stop-color="rgb(100%, 89.073181%, 89.073181%)" offset="0.171875"/><stop stop-opacity="1" stop-color="rgb(100%, 88.789368%, 88.789368%)" offset="0.175781"/><stop stop-opacity="1" stop-color="rgb(100%, 88.50708%, 88.50708%)" offset="0.179688"/><stop stop-opacity="1" stop-color="rgb(100%, 88.224792%, 88.224792%)" offset="0.183594"/><stop stop-opacity="1" stop-color="rgb(100%, 87.942505%, 87.942505%)" offset="0.1875"/><stop stop-opacity="1" stop-color="rgb(100%, 87.660217%, 87.660217%)" offset="0.191406"/><stop stop-opacity="1" stop-color="rgb(100%, 87.37793%, 87.37793%)" offset="0.195312"/><stop stop-opacity="1" stop-color="rgb(100%, 87.095642%, 87.095642%)" offset="0.199219"/><stop stop-opacity="1" stop-color="rgb(100%, 86.813354%, 86.813354%)" offset="0.203125"/><stop stop-opacity="1" stop-color="rgb(100%, 86.531067%, 86.531067%)" offset="0.207031"/><stop stop-opacity="1" stop-color="rgb(100%, 86.248779%, 86.248779%)" offset="0.210938"/><stop stop-opacity="1" stop-color="rgb(100%, 85.964966%, 85.964966%)" offset="0.214844"/><stop stop-opacity="1" stop-color="rgb(100%, 85.682678%, 85.682678%)" offset="0.21875"/><stop stop-opacity="1" stop-color="rgb(100%, 85.400391%, 85.400391%)" offset="0.222656"/><stop stop-opacity="1" stop-color="rgb(100%, 85.118103%, 85.118103%)" offset="0.226562"/><stop stop-opacity="1" stop-color="rgb(100%, 84.835815%, 84.835815%)" offset="0.230469"/><stop stop-opacity="1" stop-color="rgb(100%, 84.553528%, 84.553528%)" offset="0.234375"/><stop stop-opacity="1" stop-color="rgb(100%, 84.27124%, 84.27124%)" offset="0.238281"/><stop stop-opacity="1" stop-color="rgb(100%, 83.988953%, 83.988953%)" offset="0.242188"/><stop stop-opacity="1" stop-color="rgb(100%, 83.705139%, 83.705139%)" offset="0.246094"/><stop stop-opacity="1" stop-color="rgb(100%, 83.422852%, 83.422852%)" offset="0.25"/><stop stop-opacity="1" stop-color="rgb(100%, 83.140564%, 83.140564%)" offset="0.253906"/><stop stop-opacity="1" stop-color="rgb(100%, 82.858276%, 82.858276%)" offset="0.257812"/><stop stop-opacity="1" stop-color="rgb(100%, 82.575989%, 82.575989%)" offset="0.261719"/><stop stop-opacity="1" stop-color="rgb(100%, 82.293701%, 82.293701%)" offset="0.265625"/><stop stop-opacity="1" stop-color="rgb(100%, 82.011414%, 82.011414%)" offset="0.269531"/><stop stop-opacity="1" stop-color="rgb(100%, 81.729126%, 81.729126%)" offset="0.273438"/><stop stop-opacity="1" stop-color="rgb(100%, 81.446838%, 81.446838%)" offset="0.277344"/><stop stop-opacity="1" stop-color="rgb(100%, 81.164551%, 81.164551%)" offset="0.28125"/><stop stop-opacity="1" stop-color="rgb(100%, 80.880737%, 80.880737%)" offset="0.285156"/><stop stop-opacity="1" stop-color="rgb(100%, 80.59845%, 80.59845%)" offset="0.289062"/><stop stop-opacity="1" stop-color="rgb(100%, 80.316162%, 80.316162%)" offset="0.292969"/><stop stop-opacity="1" stop-color="rgb(100%, 80.033875%, 80.033875%)" offset="0.296875"/><stop stop-opacity="1" stop-color="rgb(100%, 79.751587%, 79.751587%)" offset="0.300781"/><stop stop-opacity="1" stop-color="rgb(100%, 79.469299%, 79.469299%)" offset="0.304688"/><stop stop-opacity="1" stop-color="rgb(100%, 79.187012%, 79.187012%)" offset="0.308594"/><stop stop-opacity="1" stop-color="rgb(100%, 78.904724%, 78.904724%)" offset="0.3125"/><stop stop-opacity="1" stop-color="rgb(100%, 78.622437%, 78.622437%)" offset="0.316406"/><stop stop-opacity="1" stop-color="rgb(100%, 78.340149%, 78.340149%)" offset="0.320312"/><stop stop-opacity="1" stop-color="rgb(100%, 78.056335%, 78.056335%)" offset="0.324219"/><stop stop-opacity="1" stop-color="rgb(100%, 77.774048%, 77.774048%)" offset="0.328125"/><stop stop-opacity="1" stop-color="rgb(100%, 77.49176%, 77.49176%)" offset="0.332031"/><stop stop-opacity="1" stop-color="rgb(100%, 77.209473%, 77.209473%)" offset="0.335938"/><stop stop-opacity="1" stop-color="rgb(100%, 76.927185%, 76.927185%)" offset="0.339844"/><stop stop-opacity="1" stop-color="rgb(100%, 76.644897%, 76.644897%)" offset="0.34375"/><stop stop-opacity="1" stop-color="rgb(100%, 76.36261%, 76.36261%)" offset="0.347656"/><stop stop-opacity="1" stop-color="rgb(100%, 76.080322%, 76.080322%)" offset="0.351562"/><stop stop-opacity="1" stop-color="rgb(100%, 75.798035%, 75.798035%)" offset="0.355469"/><stop stop-opacity="1" stop-color="rgb(100%, 75.515747%, 75.515747%)" offset="0.359375"/><stop stop-opacity="1" stop-color="rgb(100%, 75.231934%, 75.231934%)" offset="0.363281"/><stop stop-opacity="1" stop-color="rgb(100%, 74.949646%, 74.949646%)" offset="0.367188"/><stop stop-opacity="1" stop-color="rgb(100%, 74.667358%, 74.667358%)" offset="0.371094"/><stop stop-opacity="1" stop-color="rgb(100%, 74.385071%, 74.385071%)" offset="0.375"/><stop stop-opacity="1" stop-color="rgb(100%, 74.102783%, 74.102783%)" offset="0.378906"/><stop stop-opacity="1" stop-color="rgb(100%, 73.820496%, 73.820496%)" offset="0.382812"/><stop stop-opacity="1" stop-color="rgb(100%, 73.538208%, 73.538208%)" offset="0.386719"/><stop stop-opacity="1" stop-color="rgb(100%, 73.25592%, 73.25592%)" offset="0.390625"/><stop stop-opacity="1" stop-color="rgb(100%, 72.973633%, 72.973633%)" offset="0.394531"/><stop stop-opacity="1" stop-color="rgb(100%, 72.691345%, 72.691345%)" offset="0.398438"/><stop stop-opacity="1" stop-color="rgb(100%, 72.407532%, 72.407532%)" offset="0.402344"/><stop stop-opacity="1" stop-color="rgb(100%, 72.125244%, 72.125244%)" offset="0.40625"/><stop stop-opacity="1" stop-color="rgb(100%, 71.842957%, 71.842957%)" offset="0.410156"/><stop stop-opacity="1" stop-color="rgb(100%, 71.560669%, 71.560669%)" offset="0.414062"/><stop stop-opacity="1" stop-color="rgb(100%, 71.278381%, 71.278381%)" offset="0.417969"/><stop stop-opacity="1" stop-color="rgb(100%, 70.996094%, 70.996094%)" offset="0.421875"/><stop stop-opacity="1" stop-color="rgb(100%, 70.713806%, 70.713806%)" offset="0.425781"/><stop stop-opacity="1" stop-color="rgb(100%, 70.431519%, 70.431519%)" offset="0.429688"/><stop stop-opacity="1" stop-color="rgb(100%, 70.149231%, 70.149231%)" offset="0.433594"/><stop stop-opacity="1" stop-color="rgb(100%, 69.866943%, 69.866943%)" offset="0.4375"/><stop stop-opacity="1" stop-color="rgb(100%, 69.58313%, 69.58313%)" offset="0.441406"/><stop stop-opacity="1" stop-color="rgb(100%, 69.300842%, 69.300842%)" offset="0.445312"/><stop stop-opacity="1" stop-color="rgb(100%, 69.018555%, 69.018555%)" offset="0.449219"/><stop stop-opacity="1" stop-color="rgb(100%, 68.736267%, 68.736267%)" offset="0.453125"/><stop stop-opacity="1" stop-color="rgb(100%, 68.453979%, 68.453979%)" offset="0.457031"/><stop stop-opacity="1" stop-color="rgb(100%, 68.171692%, 68.171692%)" offset="0.460938"/><stop stop-opacity="1" stop-color="rgb(100%, 67.889404%, 67.889404%)" offset="0.464844"/><stop stop-opacity="1" stop-color="rgb(100%, 67.607117%, 67.607117%)" offset="0.46875"/><stop stop-opacity="1" stop-color="rgb(100%, 67.324829%, 67.324829%)" offset="0.472656"/><stop stop-opacity="1" stop-color="rgb(100%, 67.042542%, 67.042542%)" offset="0.476562"/><stop stop-opacity="1" stop-color="rgb(100%, 66.758728%, 66.758728%)" offset="0.480469"/><stop stop-opacity="1" stop-color="rgb(100%, 66.47644%, 66.47644%)" offset="0.484375"/><stop stop-opacity="1" stop-color="rgb(100%, 66.194153%, 66.194153%)" offset="0.488281"/><stop stop-opacity="1" stop-color="rgb(100%, 65.911865%, 65.911865%)" offset="0.492188"/><stop stop-opacity="1" stop-color="rgb(100%, 65.629578%, 65.629578%)" offset="0.496094"/><stop stop-opacity="1" stop-color="rgb(100%, 65.34729%, 65.34729%)" offset="0.5"/><stop stop-opacity="1" stop-color="rgb(100%, 65.065002%, 65.065002%)" offset="0.503906"/><stop stop-opacity="1" stop-color="rgb(100%, 64.782715%, 64.782715%)" offset="0.507812"/><stop stop-opacity="1" stop-color="rgb(100%, 64.500427%, 64.500427%)" offset="0.511719"/><stop stop-opacity="1" stop-color="rgb(100%, 64.21814%, 64.21814%)" offset="0.515625"/><stop stop-opacity="1" stop-color="rgb(100%, 63.934326%, 63.934326%)" offset="0.519531"/><stop stop-opacity="1" stop-color="rgb(100%, 63.652039%, 63.652039%)" offset="0.523438"/><stop stop-opacity="1" stop-color="rgb(100%, 63.369751%, 63.369751%)" offset="0.527344"/><stop stop-opacity="1" stop-color="rgb(100%, 63.087463%, 63.087463%)" offset="0.53125"/><stop stop-opacity="1" stop-color="rgb(100%, 62.805176%, 62.805176%)" offset="0.535156"/><stop stop-opacity="1" stop-color="rgb(100%, 62.522888%, 62.522888%)" offset="0.539063"/><stop stop-opacity="1" stop-color="rgb(100%, 62.240601%, 62.240601%)" offset="0.542969"/><stop stop-opacity="1" stop-color="rgb(100%, 61.958313%, 61.958313%)" offset="0.546875"/><stop stop-opacity="1" stop-color="rgb(100%, 61.676025%, 61.676025%)" offset="0.550781"/><stop stop-opacity="1" stop-color="rgb(100%, 61.393738%, 61.393738%)" offset="0.554688"/><stop stop-opacity="1" stop-color="rgb(100%, 61.109924%, 61.109924%)" offset="0.558594"/><stop stop-opacity="1" stop-color="rgb(100%, 60.827637%, 60.827637%)" offset="0.5625"/><stop stop-opacity="1" stop-color="rgb(100%, 60.545349%, 60.545349%)" offset="0.566406"/><stop stop-opacity="1" stop-color="rgb(100%, 60.263062%, 60.263062%)" offset="0.570312"/><stop stop-opacity="1" stop-color="rgb(100%, 59.980774%, 59.980774%)" offset="0.574219"/><stop stop-opacity="1" stop-color="rgb(100%, 59.698486%, 59.698486%)" offset="0.578125"/><stop stop-opacity="1" stop-color="rgb(100%, 59.416199%, 59.416199%)" offset="0.582031"/><stop stop-opacity="1" stop-color="rgb(100%, 59.133911%, 59.133911%)" offset="0.585937"/><stop stop-opacity="1" stop-color="rgb(100%, 58.851624%, 58.851624%)" offset="0.589844"/><stop stop-opacity="1" stop-color="rgb(100%, 58.569336%, 58.569336%)" offset="0.59375"/><stop stop-opacity="1" stop-color="rgb(100%, 58.285522%, 58.285522%)" offset="0.597656"/><stop stop-opacity="1" stop-color="rgb(100%, 58.003235%, 58.003235%)" offset="0.601562"/><stop stop-opacity="1" stop-color="rgb(100%, 57.720947%, 57.720947%)" offset="0.605469"/><stop stop-opacity="1" stop-color="rgb(100%, 57.43866%, 57.43866%)" offset="0.609375"/><stop stop-opacity="1" stop-color="rgb(100%, 57.156372%, 57.156372%)" offset="0.613281"/><stop stop-opacity="1" stop-color="rgb(100%, 56.874084%, 56.874084%)" offset="0.617188"/><stop stop-opacity="1" stop-color="rgb(100%, 56.591797%, 56.591797%)" offset="0.621094"/><stop stop-opacity="1" stop-color="rgb(100%, 56.309509%, 56.309509%)" offset="0.625"/><stop stop-opacity="1" stop-color="rgb(100%, 56.027222%, 56.027222%)" offset="0.628906"/><stop stop-opacity="1" stop-color="rgb(100%, 55.744934%, 55.744934%)" offset="0.632812"/><stop stop-opacity="1" stop-color="rgb(100%, 55.461121%, 55.461121%)" offset="0.636719"/><stop stop-opacity="1" stop-color="rgb(100%, 55.178833%, 55.178833%)" offset="0.640625"/><stop stop-opacity="1" stop-color="rgb(100%, 54.896545%, 54.896545%)" offset="0.644531"/><stop stop-opacity="1" stop-color="rgb(100%, 54.614258%, 54.614258%)" offset="0.648438"/><stop stop-opacity="1" stop-color="rgb(100%, 54.33197%, 54.33197%)" offset="0.652344"/><stop stop-opacity="1" stop-color="rgb(100%, 54.049683%, 54.049683%)" offset="0.65625"/><stop stop-opacity="1" stop-color="rgb(100%, 53.767395%, 53.767395%)" offset="0.660156"/><stop stop-opacity="1" stop-color="rgb(100%, 53.485107%, 53.485107%)" offset="0.664063"/><stop stop-opacity="1" stop-color="rgb(100%, 53.20282%, 53.20282%)" offset="0.667969"/><stop stop-opacity="1" stop-color="rgb(100%, 52.920532%, 52.920532%)" offset="0.671875"/><stop stop-opacity="1" stop-color="rgb(100%, 52.636719%, 52.636719%)" offset="0.675781"/><stop stop-opacity="1" stop-color="rgb(100%, 52.354431%, 52.354431%)" offset="0.679688"/><stop stop-opacity="1" stop-color="rgb(100%, 52.072144%, 52.072144%)" offset="0.683594"/><stop stop-opacity="1" stop-color="rgb(100%, 51.789856%, 51.789856%)" offset="0.6875"/><stop stop-opacity="1" stop-color="rgb(100%, 51.507568%, 51.507568%)" offset="0.691406"/><stop stop-opacity="1" stop-color="rgb(100%, 51.225281%, 51.225281%)" offset="0.695312"/><stop stop-opacity="1" stop-color="rgb(100%, 50.942993%, 50.942993%)" offset="0.699219"/><stop stop-opacity="1" stop-color="rgb(100%, 50.660706%, 50.660706%)" offset="0.703125"/><stop stop-opacity="1" stop-color="rgb(100%, 50.378418%, 50.378418%)" offset="0.707031"/><stop stop-opacity="1" stop-color="rgb(100%, 50.09613%, 50.09613%)" offset="0.710937"/><stop stop-opacity="1" stop-color="rgb(100%, 49.812317%, 49.812317%)" offset="0.714844"/><stop stop-opacity="1" stop-color="rgb(100%, 49.530029%, 49.530029%)" offset="0.71875"/><stop stop-opacity="1" stop-color="rgb(100%, 49.247742%, 49.247742%)" offset="0.722656"/><stop stop-opacity="1" stop-color="rgb(100%, 48.965454%, 48.965454%)" offset="0.726562"/><stop stop-opacity="1" stop-color="rgb(100%, 48.683167%, 48.683167%)" offset="0.730469"/><stop stop-opacity="1" stop-color="rgb(100%, 48.400879%, 48.400879%)" offset="0.734375"/><stop stop-opacity="1" stop-color="rgb(100%, 48.118591%, 48.118591%)" offset="0.738281"/><stop stop-opacity="1" stop-color="rgb(100%, 47.836304%, 47.836304%)" offset="0.742188"/><stop stop-opacity="1" stop-color="rgb(100%, 47.554016%, 47.554016%)" offset="0.746094"/><stop stop-opacity="1" stop-color="rgb(100%, 47.271729%, 47.271729%)" offset="0.75"/><stop stop-opacity="1" stop-color="rgb(100%, 46.987915%, 46.987915%)" offset="0.753906"/><stop stop-opacity="1" stop-color="rgb(100%, 46.705627%, 46.705627%)" offset="0.757812"/><stop stop-opacity="1" stop-color="rgb(100%, 46.42334%, 46.42334%)" offset="0.761719"/><stop stop-opacity="1" stop-color="rgb(100%, 46.141052%, 46.141052%)" offset="0.765625"/><stop stop-opacity="1" stop-color="rgb(100%, 45.858765%, 45.858765%)" offset="0.769531"/><stop stop-opacity="1" stop-color="rgb(100%, 45.576477%, 45.576477%)" offset="0.773438"/><stop stop-opacity="1" stop-color="rgb(100%, 45.294189%, 45.294189%)" offset="0.777344"/><stop stop-opacity="1" stop-color="rgb(100%, 45.011902%, 45.011902%)" offset="0.78125"/><stop stop-opacity="1" stop-color="rgb(100%, 44.729614%, 44.729614%)" offset="0.785156"/><stop stop-opacity="1" stop-color="rgb(100%, 44.447327%, 44.447327%)" offset="0.789063"/><stop stop-opacity="1" stop-color="rgb(100%, 44.163513%, 44.163513%)" offset="0.792969"/><stop stop-opacity="1" stop-color="rgb(100%, 43.881226%, 43.881226%)" offset="0.796875"/><stop stop-opacity="1" stop-color="rgb(100%, 43.598938%, 43.598938%)" offset="0.800781"/><stop stop-opacity="1" stop-color="rgb(100%, 43.31665%, 43.31665%)" offset="0.804688"/><stop stop-opacity="1" stop-color="rgb(100%, 43.034363%, 43.034363%)" offset="0.808594"/><stop stop-opacity="1" stop-color="rgb(100%, 42.752075%, 42.752075%)" offset="0.8125"/><stop stop-opacity="1" stop-color="rgb(100%, 42.469788%, 42.469788%)" offset="0.816406"/><stop stop-opacity="1" stop-color="rgb(100%, 42.1875%, 42.1875%)" offset="0.820312"/><stop stop-opacity="1" stop-color="rgb(100%, 41.905212%, 41.905212%)" offset="0.824219"/><stop stop-opacity="1" stop-color="rgb(100%, 41.622925%, 41.622925%)" offset="0.828125"/><stop stop-opacity="1" stop-color="rgb(100%, 41.339111%, 41.339111%)" offset="0.832031"/><stop stop-opacity="1" stop-color="rgb(100%, 41.056824%, 41.056824%)" offset="0.835937"/><stop stop-opacity="1" stop-color="rgb(100%, 40.774536%, 40.774536%)" offset="0.839844"/><stop stop-opacity="1" stop-color="rgb(100%, 40.492249%, 40.492249%)" offset="0.84375"/><stop stop-opacity="1" stop-color="rgb(100%, 40.209961%, 40.209961%)" offset="0.847656"/><stop stop-opacity="1" stop-color="rgb(100%, 39.927673%, 39.927673%)" offset="0.851562"/><stop stop-opacity="1" stop-color="rgb(100%, 39.645386%, 39.645386%)" offset="0.855469"/><stop stop-opacity="1" stop-color="rgb(100%, 39.363098%, 39.363098%)" offset="0.859375"/><stop stop-opacity="1" stop-color="rgb(100%, 39.080811%, 39.080811%)" offset="0.863281"/><stop stop-opacity="1" stop-color="rgb(100%, 38.798523%, 38.798523%)" offset="0.867188"/><stop stop-opacity="1" stop-color="rgb(100%, 38.514709%, 38.514709%)" offset="0.871094"/><stop stop-opacity="1" stop-color="rgb(100%, 38.232422%, 38.232422%)" offset="0.875"/><stop stop-opacity="1" stop-color="rgb(100%, 37.950134%, 37.950134%)" offset="0.878906"/><stop stop-opacity="1" stop-color="rgb(100%, 37.667847%, 37.667847%)" offset="0.882812"/><stop stop-opacity="1" stop-color="rgb(100%, 37.385559%, 37.385559%)" offset="0.886719"/><stop stop-opacity="1" stop-color="rgb(100%, 37.103271%, 37.103271%)" offset="0.890625"/><stop stop-opacity="1" stop-color="rgb(100%, 36.820984%, 36.820984%)" offset="0.894531"/><stop stop-opacity="1" stop-color="rgb(100%, 36.538696%, 36.538696%)" offset="0.898438"/><stop stop-opacity="1" stop-color="rgb(100%, 36.256409%, 36.256409%)" offset="0.902344"/><stop stop-opacity="1" stop-color="rgb(100%, 35.974121%, 35.974121%)" offset="0.90625"/><stop stop-opacity="1" stop-color="rgb(100%, 35.690308%, 35.690308%)" offset="0.910156"/><stop stop-opacity="1" stop-color="rgb(100%, 35.40802%, 35.40802%)" offset="0.914063"/><stop stop-opacity="1" stop-color="rgb(100%, 35.125732%, 35.125732%)" offset="0.917969"/><stop stop-opacity="1" stop-color="rgb(100%, 34.843445%, 34.843445%)" offset="0.921875"/><stop stop-opacity="1" stop-color="rgb(100%, 34.561157%, 34.561157%)" offset="0.925781"/><stop stop-opacity="1" stop-color="rgb(100%, 34.27887%, 34.27887%)" offset="0.929688"/><stop stop-opacity="1" stop-color="rgb(100%, 33.996582%, 33.996582%)" offset="0.933594"/><stop stop-opacity="1" stop-color="rgb(100%, 33.714294%, 33.714294%)" offset="0.9375"/><stop stop-opacity="1" stop-color="rgb(100%, 33.432007%, 33.432007%)" offset="0.941406"/><stop stop-opacity="1" stop-color="rgb(100%, 33.149719%, 33.149719%)" offset="0.945312"/><stop stop-opacity="1" stop-color="rgb(100%, 32.865906%, 32.865906%)" offset="0.949219"/><stop stop-opacity="1" stop-color="rgb(100%, 32.583618%, 32.583618%)" offset="0.953125"/><stop stop-opacity="1" stop-color="rgb(100%, 32.301331%, 32.301331%)" offset="0.957031"/><stop stop-opacity="1" stop-color="rgb(100%, 32.019043%, 32.019043%)" offset="0.960937"/><stop stop-opacity="1" stop-color="rgb(100%, 31.736755%, 31.736755%)" offset="0.964844"/><stop stop-opacity="1" stop-color="rgb(100%, 31.454468%, 31.454468%)" offset="0.96875"/><stop stop-opacity="1" stop-color="rgb(100%, 31.17218%, 31.17218%)" offset="0.972656"/><stop stop-opacity="1" stop-color="rgb(100%, 30.889893%, 30.889893%)" offset="0.976562"/><stop stop-opacity="1" stop-color="rgb(100%, 30.607605%, 30.607605%)" offset="0.980469"/><stop stop-opacity="1" stop-color="rgb(100%, 30.325317%, 30.325317%)" offset="0.984375"/><stop stop-opacity="1" stop-color="rgb(100%, 30.041504%, 30.041504%)" offset="0.988281"/><stop stop-opacity="1" stop-color="rgb(100%, 29.759216%, 29.759216%)" offset="0.992188"/><stop stop-opacity="1" stop-color="rgb(100%, 29.476929%, 29.476929%)" offset="0.996094"/><stop stop-opacity="1" stop-color="rgb(100%, 29.194641%, 29.194641%)" offset="1"/></linearGradient><clipPath id="b286541a50"><path d="M 174.804688 125.660156 L 200.304688 125.660156 L 200.304688 155.660156 L 174.804688 155.660156 Z M 174.804688 125.660156 " clip-rule="nonzero"/></clipPath><mask id="8c404d5a4c"><g filter="url(#22b1407013)"><rect x="-37.5" width="450" fill="#000000" y="-37.499999" height="449.999989" fill-opacity="0.8078"/></g></mask><clipPath id="ae0b2223fe"><path d="M 52 0.359375 L 85 0.359375 L 85 33 L 52 33 Z M 52 0.359375 " clip-rule="nonzero"/></clipPath><clipPath id="b93e4082cd"><path d="M 85 0.359375 L 118 0.359375 L 118 33 L 85 33 Z M 85 0.359375 " clip-rule="nonzero"/></clipPath><clipPath id="fe57f5b13d"><rect x="0" width="150" y="0" height="85"/></clipPath></defs><rect x="-37.5" width="450" fill="#ffffff" y="-37.499999" height="449.999989" fill-opacity="1"/><rect x="-37.5" width="450" fill="#ffffff" y="-37.499999" height="449.999989" fill-opacity="1"/><rect x="-37.5" width="450" fill="#ffffff" y="-37.499999" height="449.999989" fill-opacity="1"/><g clip-path="url(#6b5cd05e5e)"><path fill="#ffffff" d="M 119.707031 111.707031 C 119.707031 145.898438 181.007812 187.597656 181.007812 187.597656 C 181.007812 187.597656 242.042969 145.601562 242.3125 111.707031 C 242.3125 94.207031 228.066406 79.949219 210.582031 79.949219 C 197.144531 79.949219 185.570312 88.5625 181.007812 100.394531 C 176.449219 88.5625 164.875 79.949219 151.4375 79.949219 C 133.953125 79.949219 119.707031 94.207031 119.707031 111.707031 " fill-opacity="1" fill-rule="nonzero"/></g><g mask="url(#200e342dcb)"><g transform="matrix(1, 0, 0, 1, 132, 101)"><g clip-path="url(#e45937e06e)"><g clip-path="url(#3ac43cc637)"><path fill="#ff4949" d="M 0.222656 26.179688 C 0.222656 53.390625 49.007812 86.578125 49.007812 86.578125 C 49.007812 86.578125 97.582031 53.15625 97.796875 26.179688 C 97.796875 12.253906 86.457031 0.90625 72.542969 0.90625 C 61.847656 0.90625 52.636719 7.761719 49.007812 17.175781 C 45.378906 7.761719 36.167969 0.90625 25.472656 0.90625 C 11.558594 0.90625 0.222656 12.253906 0.222656 26.179688 " fill-opacity="1" fill-rule="nonzero"/></g></g></g></g><g clip-path="url(#7c5bcdfb0a)"><path fill="#ffffff" d="M 250.753906 172.320312 C 250.753906 172.320312 250.699219 172.828125 250.496094 173.699219 C 249.320312 178.84375 243.125 196.675781 213.707031 197.035156 C 202.886719 197.167969 191.414062 197.21875 180.773438 197.222656 C 170.136719 197.21875 158.664062 197.167969 147.84375 197.035156 C 118.496094 196.675781 112.257812 178.929688 111.058594 173.738281 C 111.027344 173.601562 110.996094 173.46875 110.972656 173.347656 C 110.835938 172.695312 110.796875 172.316406 110.796875 172.316406 C 107.183594 188.714844 109.257812 200.054688 113.90625 207.898438 C 114.195312 208.273438 114.480469 208.632812 114.757812 208.988281 C 117 211.816406 118.832031 213.875 119.835938 214.96875 C 120.246094 215.414062 120.519531 215.703125 120.636719 215.820312 C 120.648438 215.835938 120.664062 215.847656 120.671875 215.863281 C 132.492188 225.8125 149.003906 225.460938 149.003906 225.460938 L 212.542969 225.460938 C 212.542969 225.460938 229.121094 225.8125 240.941406 215.804688 C 240.960938 215.792969 240.980469 215.773438 241 215.757812 C 241.585938 215.148438 244.1875 212.371094 247.582031 208.011719 C 247.582031 208.007812 247.582031 208.007812 247.585938 208.003906 C 252.273438 200.160156 254.378906 188.792969 250.753906 172.320312 Z M 250.753906 172.320312 " fill-opacity="1" fill-rule="nonzero"/></g><g clip-path="url(#8d028a7bc5)"><g clip-path="url(#f2e648417c)"><path fill="url(#9d923f544a)" d="M 90.617188 41.3125 L 90.617188 215.867188 L 271.035156 215.867188 L 271.035156 41.3125 Z M 90.617188 41.3125 " fill-rule="nonzero"/></g></g><path fill="#ffffff" d="M 171.441406 116.742188 L 190.132812 116.742188 L 190.132812 174.863281 L 171.441406 174.863281 Z M 171.441406 116.742188 " fill-opacity="1" fill-rule="nonzero"/><path fill="#ffffff" d="M 151.734375 155.144531 L 151.734375 136.453125 L 209.835938 136.453125 L 209.835938 155.144531 Z M 151.734375 155.144531 " fill-opacity="1" fill-rule="nonzero"/><g clip-path="url(#b286541a50)"><path fill="#ff5757" d="M 199.070312 137.765625 C 199.046875 137.765625 199.023438 137.765625 199.003906 137.769531 C 198.8125 137.367188 198.402344 137.101562 197.949219 137.101562 L 197.871094 137.101562 C 197.601562 137.101562 197.351562 137.195312 197.15625 137.355469 C 197.058594 136.800781 196.582031 136.375 196.003906 136.375 L 195.925781 136.375 C 195.46875 136.375 195.070312 136.648438 194.882812 137.035156 C 194.648438 136.792969 194.328125 136.640625 193.972656 136.640625 L 193.882812 136.640625 C 193.1875 136.640625 192.621094 137.210938 192.621094 137.914062 L 192.621094 138.964844 L 192.523438 138.25 C 192.441406 137.640625 191.914062 137.179688 191.304688 137.179688 C 191.242188 137.179688 191.1875 137.183594 191.128906 137.191406 C 190.476562 137.289062 190.015625 137.878906 190.078125 138.539062 L 190.625 144.316406 C 190.722656 145.351562 191.386719 146.234375 192.339844 146.605469 L 192.339844 147.242188 L 190.117188 147.242188 C 188.539062 147.242188 187.25 148.539062 187.25 150.132812 L 187.25 151.402344 C 187.25 152.832031 186.09375 153.996094 184.671875 153.996094 C 183.25 153.996094 182.097656 152.832031 182.097656 151.402344 L 182.097656 147.699219 L 182.683594 147.699219 C 183.042969 147.699219 183.332031 147.40625 183.332031 147.046875 L 183.332031 146.046875 C 183.332031 145.761719 183.152344 145.523438 182.902344 145.433594 L 182.902344 144.1875 L 185.5 144.1875 C 186.820312 144.1875 187.898438 143.105469 187.898438 141.769531 L 187.898438 131.101562 C 187.898438 131.039062 187.875 130.980469 187.832031 130.9375 L 185.722656 128.632812 C 185.296875 128.171875 184.695312 127.90625 184.066406 127.90625 L 182.9375 127.90625 L 182.9375 126.921875 C 182.9375 126.226562 182.234375 125.660156 181.367188 125.660156 C 180.960938 125.660156 180.574219 125.78125 180.277344 126.007812 C 179.96875 126.246094 179.796875 126.574219 179.796875 126.921875 L 179.796875 127.90625 L 178.855469 127.90625 C 178.261719 127.90625 177.699219 128.136719 177.273438 128.558594 L 174.90625 130.917969 C 174.859375 130.960938 174.835938 131.023438 174.835938 131.085938 L 174.835938 141.769531 C 174.835938 143.105469 175.910156 144.1875 177.234375 144.1875 L 179.828125 144.1875 L 179.828125 145.433594 C 179.578125 145.523438 179.402344 145.761719 179.402344 146.042969 L 179.402344 147.046875 C 179.402344 147.40625 179.691406 147.699219 180.046875 147.699219 L 180.636719 147.699219 L 180.636719 151.402344 C 180.636719 153.644531 182.445312 155.464844 184.671875 155.464844 C 186.898438 155.464844 188.707031 153.644531 188.707031 151.402344 L 188.707031 150.128906 C 188.707031 149.347656 189.339844 148.710938 190.117188 148.710938 L 192.339844 148.710938 L 192.339844 155.421875 C 192.339844 155.554688 192.445312 155.660156 192.574219 155.660156 L 198.839844 155.660156 C 198.972656 155.660156 199.078125 155.554688 199.078125 155.421875 L 199.078125 146.363281 C 199.816406 145.882812 200.277344 145.050781 200.277344 144.15625 L 200.277344 138.980469 C 200.277344 138.308594 199.734375 137.765625 199.070312 137.765625 Z M 199.121094 140.382812 L 199.121094 138.277344 C 199.121094 138.265625 199.117188 138.257812 199.117188 138.246094 C 199.5 138.269531 199.804688 138.589844 199.804688 138.980469 L 199.804688 141.007812 C 199.804688 141.203125 199.726562 141.390625 199.589844 141.53125 C 199.449219 141.671875 199.265625 141.75 199.066406 141.75 C 198.824219 141.75 198.601562 141.628906 198.464844 141.4375 C 198.855469 141.242188 199.121094 140.835938 199.121094 140.382812 Z M 197.871094 137.574219 L 197.949219 137.574219 C 198.261719 137.574219 198.539062 137.785156 198.621094 138.09375 C 198.640625 138.152344 198.648438 138.210938 198.648438 138.277344 L 198.648438 140.382812 C 198.648438 140.714844 198.414062 141.003906 198.09375 141.070312 C 198.042969 141.082031 197.996094 141.085938 197.949219 141.085938 L 197.871094 141.085938 C 197.488281 141.085938 197.175781 140.769531 197.175781 140.382812 L 197.175781 138.277344 C 197.175781 137.890625 197.488281 137.574219 197.871094 137.574219 Z M 195.925781 136.851562 L 196.003906 136.851562 C 196.390625 136.851562 196.703125 137.167969 196.703125 137.554688 L 196.703125 140.480469 C 196.703125 140.867188 196.390625 141.183594 196.003906 141.183594 L 195.925781 141.183594 C 195.542969 141.183594 195.230469 140.867188 195.230469 140.480469 L 195.230469 139.941406 C 195.230469 139.90625 195.234375 139.871094 195.234375 139.832031 L 195.230469 139.832031 L 195.230469 137.914062 L 195.234375 137.914062 C 195.234375 137.882812 195.230469 137.847656 195.230469 137.8125 L 195.230469 137.554688 C 195.230469 137.167969 195.542969 136.851562 195.925781 136.851562 Z M 193.09375 137.914062 C 193.09375 137.472656 193.449219 137.117188 193.882812 137.117188 L 193.972656 137.117188 C 194.375 137.117188 194.714844 137.421875 194.757812 137.824219 L 194.757812 139.921875 C 194.710938 140.324219 194.375 140.628906 193.972656 140.628906 L 193.882812 140.628906 C 193.449219 140.628906 193.09375 140.269531 193.09375 139.832031 Z M 197.675781 150.375 L 197.675781 151.222656 L 194.679688 151.222656 L 194.679688 150.375 Z M 177.234375 143.710938 C 176.171875 143.710938 175.308594 142.839844 175.308594 141.769531 L 175.308594 131.183594 L 177.605469 128.898438 C 177.941406 128.566406 178.386719 128.382812 178.855469 128.382812 L 180.03125 128.382812 C 180.164062 128.382812 180.269531 128.273438 180.269531 128.144531 L 180.269531 126.921875 C 180.269531 126.726562 180.375 126.535156 180.566406 126.386719 C 180.777344 126.226562 181.0625 126.136719 181.367188 126.136719 C 181.960938 126.136719 182.464844 126.496094 182.464844 126.921875 L 182.464844 128.144531 C 182.464844 128.273438 182.570312 128.378906 182.699219 128.378906 L 184.066406 128.378906 C 184.5625 128.378906 185.039062 128.589844 185.375 128.957031 L 187.421875 131.191406 L 187.421875 141.769531 C 187.421875 142.839844 186.558594 143.710938 185.5 143.710938 L 182.667969 143.710938 C 182.535156 143.710938 182.429688 143.816406 182.429688 143.949219 L 182.429688 145.394531 L 182.125 145.394531 L 182.125 143.179688 L 185.101562 143.179688 C 186.089844 143.179688 186.898438 142.367188 186.898438 141.367188 L 186.898438 132.539062 C 186.898438 132.410156 186.789062 132.300781 186.660156 132.300781 L 176.070312 132.300781 C 175.941406 132.300781 175.835938 132.410156 175.835938 132.539062 L 175.835938 141.367188 C 175.835938 142.367188 176.640625 143.179688 177.628906 143.179688 L 180.609375 143.179688 L 180.609375 145.394531 L 180.300781 145.394531 L 180.300781 143.949219 C 180.300781 143.816406 180.195312 143.710938 180.066406 143.710938 Z M 184.945312 135.191406 L 184.945312 138.355469 L 177.785156 138.355469 L 177.785156 135.191406 Z M 179.875 147.046875 L 179.875 146.046875 C 179.875 145.949219 179.953125 145.867188 180.066406 145.867188 L 182.683594 145.867188 C 182.78125 145.867188 182.859375 145.949219 182.859375 146.046875 L 182.859375 147.046875 C 182.859375 147.144531 182.78125 147.222656 182.683594 147.222656 L 180.046875 147.222656 C 179.949219 147.222656 179.875 147.144531 179.875 147.046875 Z M 198.71875 146.03125 C 198.402344 146.21875 198.035156 146.316406 197.660156 146.316406 L 197.339844 146.316406 C 197.210938 146.316406 197.105469 146.421875 197.105469 146.554688 C 197.105469 146.6875 197.210938 146.792969 197.339844 146.792969 L 197.660156 146.792969 C 197.984375 146.792969 198.304688 146.730469 198.605469 146.609375 L 198.605469 155.183594 L 192.8125 155.183594 L 192.8125 148.710938 L 194.832031 148.710938 C 195.171875 148.710938 195.449219 148.988281 195.449219 149.332031 L 195.449219 149.898438 L 194.441406 149.898438 C 194.3125 149.898438 194.207031 150.003906 194.207031 150.136719 L 194.207031 151.460938 C 194.207031 151.59375 194.3125 151.699219 194.441406 151.699219 L 197.914062 151.699219 C 198.042969 151.699219 198.148438 151.59375 198.148438 151.460938 L 198.148438 150.136719 C 198.148438 150.003906 198.042969 149.898438 197.914062 149.898438 L 196.90625 149.898438 L 196.90625 149.332031 C 196.90625 148.179688 195.976562 147.242188 194.832031 147.242188 L 192.8125 147.242188 L 192.8125 146.742188 C 192.980469 146.773438 193.152344 146.792969 193.328125 146.792969 L 194.789062 146.792969 C 194.921875 146.792969 195.027344 146.6875 195.027344 146.554688 C 195.027344 146.421875 194.921875 146.316406 194.789062 146.316406 L 193.328125 146.316406 C 193.09375 146.316406 192.863281 146.28125 192.644531 146.210938 C 191.789062 145.9375 191.179688 145.175781 191.09375 144.273438 L 190.550781 138.492188 C 190.511719 138.085938 190.792969 137.722656 191.199219 137.664062 C 191.613281 137.601562 192 137.90625 192.054688 138.316406 L 192.484375 141.410156 C 192.5 141.507812 192.574219 141.589844 192.671875 141.609375 C 192.675781 141.609375 193.320312 141.75 193.8125 142.273438 C 194.285156 142.78125 194.242188 143.6875 194.242188 143.695312 C 194.234375 143.828125 194.335938 143.941406 194.464844 143.945312 C 194.589844 143.953125 194.707031 143.855469 194.714844 143.722656 C 194.714844 143.679688 194.769531 142.605469 194.15625 141.949219 C 193.738281 141.503906 193.246094 141.292969 192.972656 141.199219 L 193.011719 140.75 C 193.238281 140.96875 193.546875 141.105469 193.882812 141.105469 L 193.972656 141.105469 C 194.289062 141.105469 194.578125 140.984375 194.800781 140.789062 C 194.9375 141.289062 195.386719 141.660156 195.925781 141.660156 L 196.003906 141.660156 C 196.410156 141.660156 196.769531 141.449219 196.976562 141.132812 C 197.191406 141.394531 197.511719 141.5625 197.871094 141.5625 L 197.949219 141.5625 C 197.960938 141.5625 197.976562 141.558594 197.988281 141.558594 C 198.191406 141.964844 198.605469 142.226562 199.070312 142.226562 C 199.339844 142.226562 199.59375 142.132812 199.804688 141.96875 L 199.804688 144.15625 C 199.804688 144.929688 199.390625 145.648438 198.71875 146.03125 Z M 198.71875 146.03125 " fill-opacity="1" fill-rule="nonzero"/></g><path fill="#ff5757" d="M 179 137.996094 C 179.445312 137.996094 179.808594 137.628906 179.808594 137.179688 C 179.808594 137.019531 179.621094 135.542969 179 135.542969 C 178.410156 135.542969 178.1875 136.9375 178.1875 137.179688 C 178.1875 137.628906 178.550781 137.996094 179 137.996094 Z M 179 137.996094 " fill-opacity="1" fill-rule="nonzero"/><path fill="#ff5757" d="M 180.347656 136.441406 L 183.621094 136.441406 C 183.75 136.441406 183.855469 136.335938 183.855469 136.203125 C 183.855469 136.074219 183.75 135.964844 183.621094 135.964844 L 180.347656 135.964844 C 180.214844 135.964844 180.109375 136.074219 180.109375 136.203125 C 180.109375 136.335938 180.214844 136.441406 180.347656 136.441406 Z M 180.347656 136.441406 " fill-opacity="1" fill-rule="nonzero"/><path fill="#ff5757" d="M 180.347656 137.582031 L 183.621094 137.582031 C 183.75 137.582031 183.855469 137.472656 183.855469 137.34375 C 183.855469 137.210938 183.75 137.105469 183.621094 137.105469 L 180.347656 137.105469 C 180.214844 137.105469 180.109375 137.210938 180.109375 137.34375 C 180.109375 137.472656 180.214844 137.582031 180.347656 137.582031 Z M 180.347656 137.582031 " fill-opacity="1" fill-rule="nonzero"/><path fill="#ff5757" d="M 181.367188 128.132812 C 181.808594 128.132812 182.171875 127.769531 182.171875 127.324219 C 182.171875 126.875 181.808594 126.511719 181.367188 126.511719 C 180.921875 126.511719 180.5625 126.875 180.5625 127.324219 C 180.5625 127.769531 180.921875 128.132812 181.367188 128.132812 Z M 181.367188 126.988281 C 181.550781 126.988281 181.699219 127.136719 181.699219 127.324219 C 181.699219 127.507812 181.550781 127.65625 181.367188 127.65625 C 181.183594 127.65625 181.035156 127.507812 181.035156 127.324219 C 181.035156 127.136719 181.183594 126.988281 181.367188 126.988281 Z M 181.367188 126.988281 " fill-opacity="1" fill-rule="nonzero"/><g mask="url(#8c404d5a4c)"><g transform="matrix(1, 0, 0, 1, 106, 207)"><g clip-path="url(#fe57f5b13d)"><g fill="#183e9f" fill-opacity="0.4"><g transform="translate(0.688267, 33.038861)"><g><path d="M 1.640625 0 L 17.742188 0 C 24.542969 0 28.269531 -2.910156 28.269531 -8.070312 C 28.269531 -11.882812 26.222656 -14.300781 22.535156 -14.914062 L 22.535156 -14.996094 C 25.976562 -15.816406 27.859375 -18.109375 27.859375 -21.511719 C 27.859375 -26.632812 24.011719 -29.5 17.085938 -29.5 L 1.640625 -29.5 Z M 12.292969 -17.824219 L 12.292969 -22.328125 L 15.199219 -22.328125 C 16.636719 -22.328125 17.414062 -21.550781 17.414062 -20.160156 C 17.414062 -18.683594 16.636719 -17.824219 15.199219 -17.824219 Z M 12.292969 -7.171875 L 12.292969 -11.882812 L 15.363281 -11.882812 C 16.839844 -11.882812 17.617188 -10.980469 17.617188 -9.339844 C 17.617188 -7.949219 16.839844 -7.171875 15.363281 -7.171875 Z M 12.292969 -7.171875 "/></g></g></g><g fill="#183e9f" fill-opacity="0.4"><g transform="translate(29.694162, 33.038861)"><g><path d="M 1.640625 0 L 20.894531 0 L 20.894531 -9.015625 L 12.292969 -9.015625 L 12.292969 -29.5 L 1.640625 -29.5 Z M 1.640625 0 "/></g></g></g><g fill="#183e9f" fill-opacity="0.4"><g transform="translate(51.407608, 33.038861)"><g><path d="M 16.796875 0.941406 C 26.46875 0.941406 32.777344 -5.285156 32.777344 -14.75 C 32.777344 -24.253906 26.46875 -30.441406 16.796875 -30.441406 C 7.171875 -30.441406 0.820312 -24.253906 0.820312 -14.75 C 0.820312 -5.285156 7.171875 0.941406 16.796875 0.941406 Z M 16.796875 -8.113281 C 13.519531 -8.113281 11.472656 -10.652344 11.472656 -14.75 C 11.472656 -18.847656 13.519531 -21.429688 16.796875 -21.429688 C 20.078125 -21.429688 22.125 -18.847656 22.125 -14.75 C 22.125 -10.652344 20.078125 -8.113281 16.796875 -8.113281 Z M 16.796875 -8.113281 "/></g></g></g><g fill="#183e9f" fill-opacity="0.4"><g transform="translate(85.002, 33.038861)"><g><path d="M 16.796875 0.941406 C 26.46875 0.941406 32.777344 -5.285156 32.777344 -14.75 C 32.777344 -24.253906 26.46875 -30.441406 16.796875 -30.441406 C 7.171875 -30.441406 0.820312 -24.253906 0.820312 -14.75 C 0.820312 -5.285156 7.171875 0.941406 16.796875 0.941406 Z M 16.796875 -8.113281 C 13.519531 -8.113281 11.472656 -10.652344 11.472656 -14.75 C 11.472656 -18.847656 13.519531 -21.429688 16.796875 -21.429688 C 20.078125 -21.429688 22.125 -18.847656 22.125 -14.75 C 22.125 -10.652344 20.078125 -8.113281 16.796875 -8.113281 Z M 16.796875 -8.113281 "/></g></g></g><g fill="#183e9f" fill-opacity="0.4"><g transform="translate(118.596393, 33.038861)"><g><path d="M 1.640625 0 L 14.421875 0 C 24.378906 0 29.910156 -5.285156 29.910156 -14.75 C 29.910156 -24.214844 24.417969 -29.5 14.546875 -29.5 L 1.640625 -29.5 Z M 11.882812 -8.195312 L 11.882812 -21.304688 L 14.339844 -21.304688 C 17.496094 -21.304688 19.257812 -18.96875 19.257812 -14.75 C 19.257812 -10.53125 17.496094 -8.195312 14.339844 -8.195312 Z M 11.882812 -8.195312 "/></g></g></g><g fill="#f1403b" fill-opacity="1"><g transform="translate(0.688267, 31.29744)"><g><path d="M 1.640625 0 L 17.742188 0 C 24.542969 0 28.269531 -2.910156 28.269531 -8.070312 C 28.269531 -11.882812 26.222656 -14.300781 22.535156 -14.914062 L 22.535156 -14.996094 C 25.976562 -15.816406 27.859375 -18.109375 27.859375 -21.511719 C 27.859375 -26.632812 24.011719 -29.5 17.085938 -29.5 L 1.640625 -29.5 Z M 12.292969 -17.824219 L 12.292969 -22.328125 L 15.199219 -22.328125 C 16.636719 -22.328125 17.414062 -21.550781 17.414062 -20.160156 C 17.414062 -18.683594 16.636719 -17.824219 15.199219 -17.824219 Z M 12.292969 -7.171875 L 12.292969 -11.882812 L 15.363281 -11.882812 C 16.839844 -11.882812 17.617188 -10.980469 17.617188 -9.339844 C 17.617188 -7.949219 16.839844 -7.171875 15.363281 -7.171875 Z M 12.292969 -7.171875 "/></g></g></g><g fill="#f1403b" fill-opacity="1"><g transform="translate(29.694162, 31.29744)"><g><path d="M 1.640625 0 L 20.894531 0 L 20.894531 -9.015625 L 12.292969 -9.015625 L 12.292969 -29.5 L 1.640625 -29.5 Z M 1.640625 0 "/></g></g></g><g clip-path="url(#ae0b2223fe)"><g fill="#f1403b" fill-opacity="1"><g transform="translate(51.407608, 31.29744)"><g><path d="M 16.796875 0.941406 C 26.46875 0.941406 32.777344 -5.285156 32.777344 -14.75 C 32.777344 -24.253906 26.46875 -30.441406 16.796875 -30.441406 C 7.171875 -30.441406 0.820312 -24.253906 0.820312 -14.75 C 0.820312 -5.285156 7.171875 0.941406 16.796875 0.941406 Z M 16.796875 -8.113281 C 13.519531 -8.113281 11.472656 -10.652344 11.472656 -14.75 C 11.472656 -18.847656 13.519531 -21.429688 16.796875 -21.429688 C 20.078125 -21.429688 22.125 -18.847656 22.125 -14.75 C 22.125 -10.652344 20.078125 -8.113281 16.796875 -8.113281 Z M 16.796875 -8.113281 "/></g></g></g></g><g clip-path="url(#b93e4082cd)"><g fill="#f1403b" fill-opacity="1"><g transform="translate(85.002, 31.29744)"><g><path d="M 16.796875 0.941406 C 26.46875 0.941406 32.777344 -5.285156 32.777344 -14.75 C 32.777344 -24.253906 26.46875 -30.441406 16.796875 -30.441406 C 7.171875 -30.441406 0.820312 -24.253906 0.820312 -14.75 C 0.820312 -5.285156 7.171875 0.941406 16.796875 0.941406 Z M 16.796875 -8.113281 C 13.519531 -8.113281 11.472656 -10.652344 11.472656 -14.75 C 11.472656 -18.847656 13.519531 -21.429688 16.796875 -21.429688 C 20.078125 -21.429688 22.125 -18.847656 22.125 -14.75 C 22.125 -10.652344 20.078125 -8.113281 16.796875 -8.113281 Z M 16.796875 -8.113281 "/></g></g></g></g><g fill="#f1403b" fill-opacity="1"><g transform="translate(118.596393, 31.29744)"><g><path d="M 1.640625 0 L 14.421875 0 C 24.378906 0 29.910156 -5.285156 29.910156 -14.75 C 29.910156 -24.214844 24.417969 -29.5 14.546875 -29.5 L 1.640625 -29.5 Z M 11.882812 -8.195312 L 11.882812 -21.304688 L 14.339844 -21.304688 C 17.496094 -21.304688 19.257812 -18.96875 19.257812 -14.75 C 19.257812 -10.53125 17.496094 -8.195312 14.339844 -8.195312 Z M 11.882812 -8.195312 "/></g></g></g><g fill="#183e9f" fill-opacity="0.4"><g transform="translate(12.981234, 73.538859)"><g><path d="M 1.640625 0 L 17.742188 0 C 24.542969 0 28.269531 -2.910156 28.269531 -8.070312 C 28.269531 -11.882812 26.222656 -14.300781 22.535156 -14.914062 L 22.535156 -14.996094 C 25.976562 -15.816406 27.859375 -18.109375 27.859375 -21.511719 C 27.859375 -26.632812 24.011719 -29.5 17.085938 -29.5 L 1.640625 -29.5 Z M 12.292969 -17.824219 L 12.292969 -22.328125 L 15.199219 -22.328125 C 16.636719 -22.328125 17.414062 -21.550781 17.414062 -20.160156 C 17.414062 -18.683594 16.636719 -17.824219 15.199219 -17.824219 Z M 12.292969 -7.171875 L 12.292969 -11.882812 L 15.363281 -11.882812 C 16.839844 -11.882812 17.617188 -10.980469 17.617188 -9.339844 C 17.617188 -7.949219 16.839844 -7.171875 15.363281 -7.171875 Z M 12.292969 -7.171875 "/></g></g></g><g fill="#183e9f" fill-opacity="0.4"><g transform="translate(41.98713, 73.538859)"><g><path d="M -0.0390625 0 L 10.652344 0 L 11.71875 -4.507812 L 18.96875 -4.507812 L 19.914062 0 L 30.8125 0 L 21.960938 -29.5 L 8.851562 -29.5 Z M 12.988281 -11.472656 L 15.363281 -21.347656 L 15.445312 -21.347656 L 17.699219 -11.472656 Z M 12.988281 -11.472656 "/></g></g></g><g fill="#183e9f" fill-opacity="0.4"><g transform="translate(72.795653, 73.538859)"><g><path d="M 1.640625 0 L 11.265625 0 L 11.265625 -17.207031 L 11.347656 -17.207031 L 19.871094 0 L 31.957031 0 L 31.957031 -29.5 L 22.328125 -29.5 L 22.328125 -12.210938 L 22.25 -12.210938 L 13.726562 -29.5 L 1.640625 -29.5 Z M 1.640625 0 "/></g></g></g><g fill="#183e9f" fill-opacity="0.4"><g transform="translate(106.390045, 73.538859)"><g><path d="M 1.640625 0 L 12.292969 0 L 12.292969 -7.988281 L 14.21875 -10.449219 L 18.234375 0 L 30.648438 0 L 21.59375 -18.519531 L 30.648438 -29.5 L 18.234375 -29.5 L 12.375 -20.855469 L 12.292969 -20.894531 L 12.292969 -29.5 L 1.640625 -29.5 Z M 1.640625 0 "/></g></g></g><g fill="#f1403b" fill-opacity="1"><g transform="translate(12.981234, 71.797438)"><g><path d="M 1.640625 0 L 17.742188 0 C 24.542969 0 28.269531 -2.910156 28.269531 -8.070312 C 28.269531 -11.882812 26.222656 -14.300781 22.535156 -14.914062 L 22.535156 -14.996094 C 25.976562 -15.816406 27.859375 -18.109375 27.859375 -21.511719 C 27.859375 -26.632812 24.011719 -29.5 17.085938 -29.5 L 1.640625 -29.5 Z M 12.292969 -17.824219 L 12.292969 -22.328125 L 15.199219 -22.328125 C 16.636719 -22.328125 17.414062 -21.550781 17.414062 -20.160156 C 17.414062 -18.683594 16.636719 -17.824219 15.199219 -17.824219 Z M 12.292969 -7.171875 L 12.292969 -11.882812 L 15.363281 -11.882812 C 16.839844 -11.882812 17.617188 -10.980469 17.617188 -9.339844 C 17.617188 -7.949219 16.839844 -7.171875 15.363281 -7.171875 Z M 12.292969 -7.171875 "/></g></g></g><g fill="#f1403b" fill-opacity="1"><g transform="translate(41.98713, 71.797438)"><g><path d="M -0.0390625 0 L 10.652344 0 L 11.71875 -4.507812 L 18.96875 -4.507812 L 19.914062 0 L 30.8125 0 L 21.960938 -29.5 L 8.851562 -29.5 Z M 12.988281 -11.472656 L 15.363281 -21.347656 L 15.445312 -21.347656 L 17.699219 -11.472656 Z M 12.988281 -11.472656 "/></g></g></g><g fill="#f1403b" fill-opacity="1"><g transform="translate(72.795653, 71.797438)"><g><path d="M 1.640625 0 L 11.265625 0 L 11.265625 -17.207031 L 11.347656 -17.207031 L 19.871094 0 L 31.957031 0 L 31.957031 -29.5 L 22.328125 -29.5 L 22.328125 -12.210938 L 22.25 -12.210938 L 13.726562 -29.5 L 1.640625 -29.5 Z M 1.640625 0 "/></g></g></g><g fill="#f1403b" fill-opacity="1"><g transform="translate(106.390045, 71.797438)"><g><path d="M 1.640625 0 L 12.292969 0 L 12.292969 -7.988281 L 14.21875 -10.449219 L 18.234375 0 L 30.648438 0 L 21.59375 -18.519531 L 30.648438 -29.5 L 18.234375 -29.5 L 12.375 -20.855469 L 12.292969 -20.894531 L 12.292969 -29.5 L 1.640625 -29.5 Z M 1.640625 0 "/></g></g></g></g></g></g><path stroke-linecap="butt" transform="matrix(0.75, 0, 0, 0.75, 119.067558, 188.099988)" fill="none" stroke-linejoin="miter" d="M 12.32659 13.387517 L 6.373464 13.387517 L 6.373464 10.923976 L 11.378673 10.923976 C 11.805756 10.923976 11.92034 10.720851 11.92034 10.382309 L 11.92034 8.929184 C 11.92034 8.590642 11.805756 8.387517 11.378673 8.387517 L 6.373464 8.387517 L 6.373464 6.351059 L 12.008881 6.351059 C 12.435965 6.351059 12.550548 6.147934 12.550548 5.8146 L 12.550548 4.262517 C 12.550548 3.929183 12.435965 3.72085 12.008881 3.72085 L 3.967214 3.72085 C 3.540131 3.72085 3.425548 3.929183 3.425548 4.262517 L 3.425548 15.460434 C 3.425548 15.793768 3.540131 16.002101 3.967214 16.002101 L 12.32659 16.002101 C 12.758881 16.002101 12.873465 15.793768 12.873465 15.460434 L 12.873465 13.929184 C 12.873465 13.595851 12.758881 13.387517 12.32659 13.387517 Z M 23.222424 3.72085 L 21.243257 3.72085 C 20.743257 3.72085 20.60784 3.871892 20.462007 4.319808 L 17.941173 12.043767 L 15.404715 4.319808 C 15.258882 3.871892 15.123465 3.72085 14.63909 3.72085 L 12.571381 3.72085 C 12.212006 3.72085 12.13909 4.017725 12.23284 4.262517 L 16.248465 15.439601 C 16.467215 15.929184 16.597423 16.002101 17.008882 16.002101 L 18.800549 16.002101 C 19.212007 16.002101 19.342215 15.929184 19.566174 15.439601 L 23.555757 4.262517 C 23.654716 4.017725 23.576591 3.72085 23.222424 3.72085 Z M 32.493258 13.387517 L 26.540132 13.387517 L 26.540132 10.923976 L 31.540133 10.923976 C 31.972424 10.923976 32.087008 10.720851 32.087008 10.382309 L 32.087008 8.929184 C 32.087008 8.590642 31.972424 8.387517 31.540133 8.387517 L 26.540132 8.387517 L 26.540132 6.351059 L 32.175549 6.351059 C 32.602633 6.351059 32.717216 6.147934 32.717216 5.8146 L 32.717216 4.262517 C 32.717216 3.929183 32.602633 3.72085 32.175549 3.72085 L 24.133882 3.72085 C 23.706799 3.72085 23.592216 3.929183 23.592216 4.262517 L 23.592216 15.460434 C 23.592216 15.793768 23.706799 16.002101 24.133882 16.002101 L 32.493258 16.002101 C 32.920341 16.002101 33.034924 15.793768 33.034924 15.460434 L 33.034924 13.929184 C 33.034924 13.595851 32.920341 13.387517 32.493258 13.387517 Z M 43.649508 15.403142 L 41.0193 11.575017 C 42.17555 11.184392 43.61305 9.825017 43.61305 7.861475 C 43.61305 6.668767 43.222425 5.606267 42.529717 4.934392 C 41.748467 4.153142 40.847425 3.741683 38.816175 3.741683 L 34.11305 3.741683 C 33.685966 3.741683 33.592216 3.944808 33.592216 4.28335 L 33.592216 15.460434 C 33.592216 15.887518 33.779716 16.002101 34.11305 16.002101 L 35.962008 16.002101 C 36.295341 16.002101 36.503675 15.887518 36.503675 15.460434 L 36.503675 6.351059 L 38.982842 6.351059 C 39.9568 6.351059 40.701592 6.97085 40.701592 7.9396 C 40.701592 8.8146 39.842217 9.450017 38.930758 9.450017 L 38.555758 9.450017 C 38.123466 9.450017 38.014091 9.653142 38.014091 9.991684 L 38.014091 11.486476 C 38.014091 12.002101 38.05055 12.215642 38.222425 12.439601 L 40.232842 15.439601 C 40.498467 15.830226 40.722425 16.002101 41.165133 16.002101 L 43.368258 16.002101 C 43.722425 16.002101 43.821384 15.663559 43.649508 15.403142 Z M 53.665134 3.72085 L 51.654717 3.72085 C 51.222426 3.72085 51.040134 3.778142 50.790134 4.28335 L 48.685967 8.293767 L 46.498467 4.28335 C 46.23805 3.778142 46.055759 3.72085 45.623467 3.72085 L 43.477633 3.72085 C 43.123467 3.72085 43.087008 4.038558 43.180758 4.246892 L 47.17555 11.387517 L 47.17555 15.460434 C 47.17555 15.887518 47.36305 16.002101 47.717217 16.002101 L 49.581801 16.002101 C 49.915134 16.002101 50.123467 15.887518 50.123467 15.460434 L 50.123467 11.387517 L 53.967218 4.246892 C 54.055759 4.038558 54.019301 3.72085 53.665134 3.72085 Z M 61.96201 3.72085 L 57.784926 3.72085 C 57.357843 3.72085 57.243259 3.929183 57.243259 4.262517 L 57.243259 15.460434 C 57.243259 15.793768 57.357843 16.002101 57.784926 16.002101 L 61.96201 16.002101 C 64.185968 16.002101 66.982843 14.731267 66.982843 11.798976 L 66.982843 7.918767 C 66.982843 5.007308 64.185968 3.72085 61.96201 3.72085 Z M 64.05576 8.184392 L 64.05576 11.538559 C 64.05576 12.731267 63.201593 13.408351 61.96201 13.408351 L 60.175551 13.408351 L 60.175551 6.3146 L 61.96201 6.3146 C 63.201593 6.3146 64.05576 7.007309 64.05576 8.184392 Z M 77.732844 15.403142 L 75.097427 11.575017 C 76.253677 11.184392 77.696386 9.825017 77.696386 7.861475 C 77.696386 6.668767 77.305761 5.606267 76.613052 4.934392 C 75.826594 4.153142 74.930761 3.741683 72.89951 3.741683 L 68.196385 3.741683 C 67.769302 3.741683 67.670343 3.944808 67.670343 4.28335 L 67.670343 15.460434 C 67.670343 15.887518 67.857843 16.002101 68.196385 16.002101 L 70.040135 16.002101 C 70.378677 16.002101 70.581802 15.887518 70.581802 15.460434 L 70.581802 6.351059 L 73.066177 6.351059 C 74.034927 6.351059 74.784927 6.97085 74.784927 7.9396 C 74.784927 8.8146 73.925552 9.450017 73.014094 9.450017 L 72.639094 9.450017 C 72.206802 9.450017 72.097427 9.653142 72.097427 9.991684 L 72.097427 11.486476 C 72.097427 12.002101 72.133885 12.215642 72.300552 12.439601 L 74.316177 15.439601 C 74.576594 15.830226 74.800552 16.002101 75.248469 16.002101 L 77.451594 16.002101 C 77.805761 16.002101 77.899511 15.663559 77.732844 15.403142 Z M 88.050553 12.064601 L 88.050553 7.65835 C 88.050553 4.710433 85.24847 3.4396 83.029719 3.4396 C 80.805761 3.4396 78.045344 4.710433 78.045344 7.65835 L 78.045344 12.064601 C 78.045344 15.012517 80.805761 16.278143 83.029719 16.278143 C 85.24847 16.278143 88.050553 15.012517 88.050553 12.064601 Z M 85.118261 7.918767 L 85.118261 11.798976 C 85.118261 12.996892 84.258886 13.684392 83.029719 13.684392 C 81.816178 13.684392 80.956803 12.996892 80.956803 11.798976 L 80.956803 7.918767 C 80.956803 6.726059 81.816178 6.038559 83.029719 6.038559 C 84.258886 6.038559 85.118261 6.726059 85.118261 7.918767 Z M 93.472428 3.72085 L 89.274511 3.72085 C 88.847428 3.72085 88.732845 3.929183 88.732845 4.262517 L 88.732845 15.460434 C 88.732845 15.887518 88.941178 16.002101 89.274511 16.002101 L 91.12347 16.002101 C 91.456803 16.002101 91.665137 15.887518 91.665137 15.460434 L 91.665137 12.361476 L 93.451595 12.361476 C 96.644304 12.361476 98.363054 10.642726 98.363054 8.048975 C 98.363054 5.476058 96.680762 3.72085 93.472428 3.72085 Z M 93.451595 9.840642 L 91.665137 9.840642 L 91.665137 6.351059 L 93.451595 6.351059 C 94.909929 6.351059 95.545345 7.132309 95.545345 8.106267 C 95.545345 9.038559 94.909929 9.840642 93.451595 9.840642 Z M 111.571388 12.361476 C 111.571388 11.913559 111.420346 11.726059 111.008888 11.726059 L 109.180763 11.726059 C 108.769304 11.726059 108.732846 12.028142 108.675554 12.397934 C 108.529721 13.293767 107.727638 13.668767 106.717221 13.668767 C 105.482846 13.668767 104.644304 12.996892 104.644304 11.798976 L 104.644304 7.918767 C 104.644304 6.741684 105.482846 6.054184 106.717221 6.054184 C 107.727638 6.054184 108.248471 6.335434 108.639096 6.950017 C 108.784929 7.173975 108.810971 7.528142 109.201596 7.528142 L 110.993263 7.528142 C 111.420346 7.528142 111.571388 7.434392 111.571388 6.986475 C 111.326596 4.616683 109.034929 3.4396 106.717221 3.4396 C 104.493262 3.4396 101.717221 4.731267 101.717221 7.65835 L 101.717221 12.064601 C 101.717221 14.991684 104.493262 16.278143 106.717221 16.278143 C 109.034929 16.278143 111.571388 14.767726 111.571388 12.361476 Z M 121.84743 12.064601 L 121.84743 7.65835 C 121.84743 4.710433 119.045347 3.4396 116.826597 3.4396 C 114.607846 3.4396 111.84743 4.710433 111.84743 7.65835 L 111.84743 12.064601 C 111.84743 15.012517 114.607846 16.278143 116.826597 16.278143 C 119.045347 16.278143 121.84743 15.012517 121.84743 12.064601 Z M 118.920347 7.918767 L 118.920347 11.798976 C 118.920347 12.996892 118.060972 13.684392 116.826597 13.684392 C 115.618263 13.684392 114.75368 12.996892 114.75368 11.798976 L 114.75368 7.918767 C 114.75368 6.726059 115.618263 6.038559 116.826597 6.038559 C 118.060972 6.038559 118.920347 6.726059 118.920347 7.918767 Z M 131.717223 3.72085 L 129.868264 3.72085 C 129.534931 3.72085 129.326597 3.830225 129.326597 4.262517 L 129.326597 11.840642 C 129.326597 13.017726 128.545347 13.684392 127.316181 13.684392 C 126.081806 13.684392 125.316181 13.017726 125.316181 11.840642 L 125.316181 4.262517 C 125.316181 3.830225 125.107847 3.72085 124.774514 3.72085 L 122.925555 3.72085 C 122.592222 3.72085 122.383889 3.830225 122.383889 4.262517 L 122.383889 12.252101 C 122.383889 15.179184 125.092222 16.278143 127.316181 16.278143 C 129.534931 16.278143 132.258889 15.179184 132.258889 12.252101 L 132.258889 4.262517 C 132.258889 3.830225 132.050556 3.72085 131.717223 3.72085 Z M 142.592223 3.72085 L 140.800557 3.72085 C 140.467223 3.72085 140.25889 3.830225 140.25889 4.262517 L 140.25889 10.736476 L 136.300556 4.356267 C 136.060973 3.981267 135.930765 3.72085 135.462015 3.72085 L 133.712014 3.72085 C 133.279723 3.72085 133.170348 3.929183 133.170348 4.262517 L 133.170348 15.460434 C 133.170348 15.887518 133.373473 16.002101 133.712014 16.002101 L 135.555765 16.002101 C 135.894306 16.002101 136.097431 15.887518 136.097431 15.460434 L 136.097431 8.965642 L 140.055765 15.366684 C 140.295348 15.741684 140.425557 16.002101 140.894307 16.002101 L 142.592223 16.002101 C 143.024515 16.002101 143.13389 15.793768 143.13389 15.460434 L 143.13389 4.262517 C 143.13389 3.830225 142.925557 3.72085 142.592223 3.72085 Z M 152.498474 3.72085 L 143.837015 3.72085 C 143.409932 3.72085 143.295348 3.929183 143.295348 4.262517 L 143.295348 5.8146 C 143.295348 6.147934 143.409932 6.351059 143.837015 6.351059 L 146.712015 6.351059 L 146.712015 15.460434 C 146.712015 15.887518 146.91514 16.002101 147.253682 16.002101 L 149.097432 16.002101 C 149.435974 16.002101 149.639099 15.887518 149.639099 15.460434 L 149.639099 6.351059 L 152.498474 6.351059 C 152.925557 6.351059 153.040141 6.147934 153.040141 5.8146 L 153.040141 4.262517 C 153.040141 3.929183 152.925557 3.72085 152.498474 3.72085 Z M 158.988058 8.871892 C 158.243266 8.575017 155.498474 8.163559 155.498474 7.022934 C 155.498474 6.1896 156.524516 5.9396 157.139099 5.9396 C 157.701599 5.9396 158.373474 6.111475 158.727641 6.444809 C 158.951599 6.668767 159.045349 6.819809 159.123474 7.007309 C 159.212016 7.246892 159.264099 7.507309 159.623474 7.507309 L 161.4516 7.507309 C 161.883891 7.507309 161.993266 7.434392 161.993266 6.986475 C 161.993266 4.522933 159.399516 3.4396 157.029724 3.4396 C 154.696391 3.53335 152.493266 4.731267 152.493266 7.153142 C 152.493266 9.528142 154.227641 10.272934 156.113058 10.871892 C 157.701599 11.371892 159.363058 11.387517 159.363058 12.439601 C 159.363058 13.481267 158.540141 13.705226 157.529724 13.705226 C 156.842224 13.705226 156.076599 13.533351 155.701599 13.090642 C 155.462016 12.809392 155.368266 12.564601 155.347432 12.325017 C 155.310974 11.861476 155.107849 11.798976 154.680766 11.798976 L 152.868266 11.798976 C 152.435974 11.798976 152.326599 11.897934 152.326599 12.325017 C 152.326599 14.939601 155.014099 16.278143 157.342224 16.278143 C 160.217224 16.278143 162.310975 15.012517 162.310975 12.361476 C 162.310975 9.825017 160.331808 9.278142 158.988058 8.871892 Z M 158.988058 8.871892 " stroke="#ff5757" stroke-width="1.236669" stroke-opacity="1" stroke-miterlimit="4"/></svg>